<svg xmlns:xlink="http://www.w3.org/1999/xlink" aria-hidden="true" width="null" height="null" viewBox="0 0 314 74" fill="none" xmlns="http://www.w3.org/2000/svg" class="css-a6nab"><path d="M311 74L308.113 69L313.887 69L311 74ZM291 1.00005L291 1.50005L291 1.00005ZM311 21L310.5 21L311 21ZM0.499997 0.500044L291 0.500047L291 1.50005L0.499997 1.50004L0.499997 0.500044ZM311.5 21L311.5 69.5L310.5 69.5L310.5 21L311.5 21ZM291 0.500047C302.322 0.500046 311.5 9.67821 311.5 21L310.5 21C310.5 10.2305 301.77 1.50005 291 1.50005L291 0.500047Z" fill="url(&quot;#paint0_linear&quot;)"></path><defs><linearGradient id="paint0_linear" x1="320" y1="46.1237" x2="5.00008" y2="46.1237" gradientUnits="userSpaceOnUse"><stop stop-color="#3C3C42"></stop><stop offset="1" stop-color="#202024"></stop></linearGradient><linearGradient id="paint0_linear" x1="320" y1="46.1237" x2="5.00008" y2="46.1237" gradientUnits="userSpaceOnUse"><stop stop-color="#3C3C42"></stop><stop offset="1" stop-color="#202024"></stop></linearGradient></defs></svg>